<svg width="255" height="255" viewBox="0 0 255 255" fill="none" xmlns="http://www.w3.org/2000/svg">
<path d="M64.016 234.295H189.984C231.498 234.295 242.999 200.003 221.47 170.334L221.466 170.33C221.401 170.24 167.493 96.4985 156 94C144.5 91.5 136.5 96.5 128 94C119.5 91.5 106 82.5 94.5 94C83.1031 105.397 35.3994 169.172 34.5452 170.314C34.5185 170.35 34.5191 170.347 34.491 170.382C13.5095 196.052 20.5294 234.295 64.016 234.295Z" fill="url(#paint0_linear_4_65)"/>
<path d="M142 248.5H55C9.00001 248.5 -5 197.5 15.5 169.5L81.8453 86.3208C82.2692 85.7894 82.5 85.1298 82.5 84.4501V25.1228C82.5 24.1103 81.9892 23.166 81.1417 22.6119L64.9284 12.0109C62.4325 10.379 63.5881 6.5 66.5702 6.5H146" stroke="#343434" stroke-width="12" stroke-linecap="round"/>
<path d="M112.5 248.5H199.5C245.5 248.5 259.5 197.5 239 169.5L172.655 86.3208C172.231 85.7894 172 85.1298 172 84.4501V25.1228C172 24.1103 172.511 23.166 173.358 22.6119L189.572 12.0109C192.068 10.379 190.912 6.5 187.93 6.5H108.5" stroke="#343434" stroke-width="12" stroke-linecap="round"/>
<circle cx="136.5" cy="75" r="10" fill="#58AEFF"/>
<circle cx="110" cy="58.5" r="10.5" fill="#60B2FF"/>
<circle cx="142" cy="39.5" r="12.5" fill="#72BAFF"/>
<circle cx="110" cy="104.5" r="7.5" transform="rotate(180 110 104.5)" fill="#9ACBFF"/>
<circle cx="120" cy="129.5" r="7.5" transform="rotate(180 120 129.5)" fill="#9ACBFF"/>
<path d="M73.5 148C73.5 145.791 75.2909 144 77.5 144C79.7091 144 81.5 145.791 81.5 148C81.5 150.209 79.7091 152 77.5 152C75.2909 152 73.5 150.209 73.5 148Z" fill="#9ACBFF"/>
<path d="M182.5 146C182.5 143.791 184.291 142 186.5 142C188.709 142 190.5 143.791 190.5 146C190.5 148.209 188.709 150 186.5 150C184.291 150 182.5 148.209 182.5 146Z" fill="#9ACBFF"/>
<path d="M163.5 161C163.5 158.791 165.291 157 167.5 157C169.709 157 171.5 158.791 171.5 161C171.5 163.209 169.709 165 167.5 165C165.291 165 163.5 163.209 163.5 161Z" fill="#9ACBFF"/>
<circle cx="147.5" cy="126" r="5" transform="rotate(180 147.5 126)" fill="#9ACBFF"/>
<circle cx="147.5" cy="126" r="5" transform="rotate(180 147.5 126)" fill="#9ACBFF"/>
<circle cx="102.5" cy="144" r="5" transform="rotate(180 102.5 144)" fill="#9ACBFF"/>
<path d="M155.5 111.5C155.5 109.015 157.515 107 160 107C162.485 107 164.5 109.015 164.5 111.5C164.5 113.985 162.485 116 160 116C157.515 116 155.5 113.985 155.5 111.5Z" fill="#9ACBFF"/>
<path d="M114.5 161.5C114.5 159.015 116.515 157 119 157C121.485 157 123.5 159.015 123.5 161.5C123.5 163.985 121.485 166 119 166C116.515 166 114.5 163.985 114.5 161.5Z" fill="#9ACBFF"/>
<path d="M131.5 107C131.5 103.686 134.186 101 137.5 101C140.814 101 143.5 103.686 143.5 107C143.5 110.314 140.814 113 137.5 113C134.186 113 131.5 110.314 131.5 107Z" fill="#9ACBFF"/>
<path d="M136.5 150C136.5 146.686 139.186 144 142.5 144C145.814 144 148.5 146.686 148.5 150C148.5 153.314 145.814 156 142.5 156C139.186 156 136.5 153.314 136.5 150Z" fill="#9ACBFF"/>
<path d="M162.5 137C162.5 133.686 165.186 131 168.5 131C171.814 131 174.5 133.686 174.5 137C174.5 140.314 171.814 143 168.5 143C165.186 143 162.5 140.314 162.5 137Z" fill="#9ACBFF"/>
<path d="M83.5 125C83.5 121.686 86.1863 119 89.5 119C92.8137 119 95.5 121.686 95.5 125C95.5 128.314 92.8137 131 89.5 131C86.1863 131 83.5 128.314 83.5 125Z" fill="#9ACBFF"/>
<defs>
<linearGradient id="paint0_linear_4_65" x1="127.606" y1="88.2867" x2="127.606" y2="234.295" gradientUnits="userSpaceOnUse">
<stop stop-color="#59AFFF"/>
<stop offset="1" stop-color="#3888FF"/>
</linearGradient>
</defs>
</svg>
