<svg width="738" height="255" viewBox="0 0 738 255" fill="none" xmlns="http://www.w3.org/2000/svg">
<g clip-path="url(#clip0_4_91)">
<path d="M64.016 234.295H189.984C231.498 234.295 242.999 200.003 221.47 170.334L221.466 170.33C221.401 170.24 167.493 96.4985 156 94C144.5 91.5 136.5 96.5 128 94C119.5 91.5 106 82.5 94.5 94C83.1031 105.397 35.3994 169.172 34.5452 170.314C34.5185 170.35 34.5191 170.347 34.491 170.382C13.5095 196.052 20.5294 234.295 64.016 234.295Z" fill="url(#paint0_linear_4_91)"/>
<path d="M142 248.5H55C9.00001 248.5 -5 197.5 15.5 169.5L81.8453 86.3208C82.2692 85.7894 82.5 85.1298 82.5 84.4501V25.1228C82.5 24.1103 81.9892 23.166 81.1417 22.6119L64.9284 12.0109C62.4325 10.379 63.5881 6.5 66.5702 6.5H146" stroke="#343434" stroke-width="12" stroke-linecap="round"/>
<path d="M112.5 248.5H199.5C245.5 248.5 259.5 197.5 239 169.5L172.655 86.3208C172.231 85.7894 172 85.1298 172 84.4501V25.1228C172 24.1103 172.511 23.166 173.358 22.6119L189.572 12.0109C192.068 10.379 190.912 6.5 187.93 6.5H108.5" stroke="#343434" stroke-width="12" stroke-linecap="round"/>
<circle cx="136.5" cy="75" r="10" fill="#58AEFF"/>
<circle cx="110" cy="58.5" r="10.5" fill="#60B2FF"/>
<circle cx="142" cy="39.5" r="12.5" fill="#72BAFF"/>
<circle cx="110" cy="104.5" r="7.5" transform="rotate(180 110 104.5)" fill="#9ACBFF"/>
<circle cx="120" cy="129.5" r="7.5" transform="rotate(180 120 129.5)" fill="#9ACBFF"/>
<path d="M73.5 148C73.5 145.791 75.2909 144 77.5 144C79.7091 144 81.5 145.791 81.5 148C81.5 150.209 79.7091 152 77.5 152C75.2909 152 73.5 150.209 73.5 148Z" fill="#9ACBFF"/>
<path d="M182.5 146C182.5 143.791 184.291 142 186.5 142C188.709 142 190.5 143.791 190.5 146C190.5 148.209 188.709 150 186.5 150C184.291 150 182.5 148.209 182.5 146Z" fill="#9ACBFF"/>
<path d="M163.5 161C163.5 158.791 165.291 157 167.5 157C169.709 157 171.5 158.791 171.5 161C171.5 163.209 169.709 165 167.5 165C165.291 165 163.5 163.209 163.5 161Z" fill="#9ACBFF"/>
<circle cx="147.5" cy="126" r="5" transform="rotate(180 147.5 126)" fill="#9ACBFF"/>
<circle cx="147.5" cy="126" r="5" transform="rotate(180 147.5 126)" fill="#9ACBFF"/>
<circle cx="102.5" cy="144" r="5" transform="rotate(180 102.5 144)" fill="#9ACBFF"/>
<path d="M155.5 111.5C155.5 109.015 157.515 107 160 107C162.485 107 164.5 109.015 164.5 111.5C164.5 113.985 162.485 116 160 116C157.515 116 155.5 113.985 155.5 111.5Z" fill="#9ACBFF"/>
<path d="M114.5 161.5C114.5 159.015 116.515 157 119 157C121.485 157 123.5 159.015 123.5 161.5C123.5 163.985 121.485 166 119 166C116.515 166 114.5 163.985 114.5 161.5Z" fill="#9ACBFF"/>
<path d="M131.5 107C131.5 103.686 134.186 101 137.5 101C140.814 101 143.5 103.686 143.5 107C143.5 110.314 140.814 113 137.5 113C134.186 113 131.5 110.314 131.5 107Z" fill="#9ACBFF"/>
<path d="M136.5 150C136.5 146.686 139.186 144 142.5 144C145.814 144 148.5 146.686 148.5 150C148.5 153.314 145.814 156 142.5 156C139.186 156 136.5 153.314 136.5 150Z" fill="#9ACBFF"/>
<path d="M162.5 137C162.5 133.686 165.186 131 168.5 131C171.814 131 174.5 133.686 174.5 137C174.5 140.314 171.814 143 168.5 143C165.186 143 162.5 140.314 162.5 137Z" fill="#9ACBFF"/>
<path d="M83.5 125C83.5 121.686 86.1863 119 89.5 119C92.8137 119 95.5 121.686 95.5 125C95.5 128.314 92.8137 131 89.5 131C86.1863 131 83.5 128.314 83.5 125Z" fill="#9ACBFF"/>
<path d="M348.8 196C341.6 196 335.267 194.533 329.8 191.6C324.467 188.667 320.267 184.533 317.2 179.2C314.133 173.733 312.6 167.467 312.6 160.4V72.6H277.4V50H337.6V160.4C337.6 164.4 338.733 167.6 341 170C343.4 172.267 346.6 173.4 350.6 173.4H383.8V196H348.8ZM452.122 198C442.789 198 434.655 196.2 427.722 192.6C420.789 189 415.389 184 411.522 177.6C407.789 171.067 405.922 163.467 405.922 154.8V127.2C405.922 118.533 407.789 111 411.522 104.6C415.389 98.0667 420.789 93 427.722 89.4C434.655 85.8 442.789 84 452.122 84C461.322 84 469.322 85.8 476.122 89.4C483.055 93 488.389 98.0667 492.122 104.6C495.989 111 497.922 118.533 497.922 127.2V147H430.122V154.8C430.122 162.533 431.989 168.4 435.722 172.4C439.455 176.267 444.989 178.2 452.322 178.2C457.922 178.2 462.455 177.267 465.922 175.4C469.389 173.4 471.589 170.533 472.522 166.8H497.122C495.255 176.267 490.189 183.867 481.922 189.6C473.789 195.2 463.855 198 452.122 198ZM473.722 133V127C473.722 119.4 471.922 113.6 468.322 109.6C464.722 105.467 459.322 103.4 452.122 103.4C444.922 103.4 439.455 105.467 435.722 109.6C431.989 113.733 430.122 119.6 430.122 127.2V131.4L475.522 131L473.722 133ZM567.644 197.8C559.244 197.8 551.91 196.467 545.644 193.8C539.377 191.133 534.444 187.467 530.844 182.8C527.377 178 525.51 172.4 525.244 166H550.244C550.51 169.467 552.177 172.267 555.244 174.4C558.444 176.533 562.577 177.6 567.644 177.6H576.444C582.577 177.6 587.177 176.4 590.244 174C593.31 171.6 594.844 168.333 594.844 164.2C594.844 160.333 593.444 157.333 590.644 155.2C587.977 152.933 583.777 151.467 578.044 150.8L564.444 148.8C551.91 147.067 542.71 143.733 536.844 138.8C530.977 133.867 528.044 126.467 528.044 116.6C528.044 106.333 531.51 98.4 538.444 92.8C545.377 87.0667 555.577 84.2 569.044 84.2H576.644C588.91 84.2 598.71 86.9333 606.044 92.4C613.377 97.8667 617.31 105.2 617.844 114.4H592.844C592.444 111.467 590.777 109.067 587.844 107.2C585.044 105.333 581.31 104.4 576.644 104.4H569.044C563.31 104.4 559.11 105.467 556.444 107.6C553.91 109.6 552.644 112.6 552.644 116.6C552.644 120.333 553.777 123.133 556.044 125C558.31 126.733 561.977 128 567.044 128.8L581.244 130.8C594.31 132.667 603.91 136.2 610.044 141.4C616.31 146.467 619.444 154 619.444 164C619.444 174.667 615.777 183 608.444 189C601.244 194.867 590.577 197.8 576.444 197.8H567.644ZM703.766 196C693.232 196 684.966 193.067 678.966 187.2C673.099 181.333 670.166 173.267 670.166 163V108.6H640.366V86H670.166V55H695.366V86H737.566V108.6H695.366V163C695.366 169.933 698.766 173.4 705.566 173.4H735.566V196H703.766Z" fill="#343434"/>
</g>
<defs>
<linearGradient id="paint0_linear_4_91" x1="127.606" y1="88.2867" x2="127.606" y2="234.295" gradientUnits="userSpaceOnUse">
<stop stop-color="#59AFFF"/>
<stop offset="0.5" stop-color="#499CFF"/>
<stop offset="0.5001" stop-color="#499CFF"/>
<stop offset="1" stop-color="#3888FF"/>
</linearGradient>
<clipPath id="clip0_4_91">
<rect width="738" height="255" fill="white"/>
</clipPath>
</defs>
</svg>
