<svg width="675" height="255" viewBox="0 0 675 255" fill="none" xmlns="http://www.w3.org/2000/svg">
<g clip-path="url(#clip0_4_91)">
<rect width="675" height="255" fill="white"/>
<path d="M64.016 234.295H189.984C231.498 234.295 242.999 200.003 221.47 170.334L221.466 170.33C221.401 170.24 167.493 96.4985 156 94C144.5 91.5 136.5 96.5 128 94C119.5 91.5 106 82.5 94.5 94C83.1031 105.397 35.3994 169.172 34.5452 170.314C34.5185 170.35 34.5191 170.347 34.491 170.382C13.5095 196.052 20.5294 234.295 64.016 234.295Z" fill="url(#paint0_linear_4_91)"/>
<path d="M142 248.5H55C9.00001 248.5 -5 197.5 15.5 169.5L81.8453 86.3208C82.2692 85.7894 82.5 85.1298 82.5 84.4501V25.1228C82.5 24.1103 81.9892 23.166 81.1417 22.6119L64.9284 12.0109C62.4325 10.379 63.5881 6.5 66.5702 6.5H146" stroke="#343434" stroke-width="12" stroke-linecap="round"/>
<path d="M112.5 248.5H199.5C245.5 248.5 259.5 197.5 239 169.5L172.655 86.3208C172.231 85.7894 172 85.1298 172 84.4501V25.1228C172 24.1103 172.511 23.166 173.358 22.6119L189.572 12.0109C192.068 10.379 190.912 6.5 187.93 6.5H108.5" stroke="#343434" stroke-width="12" stroke-linecap="round"/>
<circle cx="136.5" cy="75" r="10" fill="#58AEFF"/>
<circle cx="110" cy="58.5" r="10.5" fill="#60B2FF"/>
<circle cx="142" cy="39.5" r="12.5" fill="#72BAFF"/>
<circle cx="110" cy="104.5" r="7.5" transform="rotate(180 110 104.5)" fill="#9ACBFF"/>
<circle cx="120" cy="129.5" r="7.5" transform="rotate(180 120 129.5)" fill="#9ACBFF"/>
<path d="M73.5 148C73.5 145.791 75.2909 144 77.5 144C79.7091 144 81.5 145.791 81.5 148C81.5 150.209 79.7091 152 77.5 152C75.2909 152 73.5 150.209 73.5 148Z" fill="#9ACBFF"/>
<path d="M182.5 146C182.5 143.791 184.291 142 186.5 142C188.709 142 190.5 143.791 190.5 146C190.5 148.209 188.709 150 186.5 150C184.291 150 182.5 148.209 182.5 146Z" fill="#9ACBFF"/>
<path d="M163.5 161C163.5 158.791 165.291 157 167.5 157C169.709 157 171.5 158.791 171.5 161C171.5 163.209 169.709 165 167.5 165C165.291 165 163.5 163.209 163.5 161Z" fill="#9ACBFF"/>
<circle cx="147.5" cy="126" r="5" transform="rotate(180 147.5 126)" fill="#9ACBFF"/>
<circle cx="147.5" cy="126" r="5" transform="rotate(180 147.5 126)" fill="#9ACBFF"/>
<circle cx="102.5" cy="144" r="5" transform="rotate(180 102.5 144)" fill="#9ACBFF"/>
<path d="M155.5 111.5C155.5 109.015 157.515 107 160 107C162.485 107 164.5 109.015 164.5 111.5C164.5 113.985 162.485 116 160 116C157.515 116 155.5 113.985 155.5 111.5Z" fill="#9ACBFF"/>
<path d="M114.5 161.5C114.5 159.015 116.515 157 119 157C121.485 157 123.5 159.015 123.5 161.5C123.5 163.985 121.485 166 119 166C116.515 166 114.5 163.985 114.5 161.5Z" fill="#9ACBFF"/>
<path d="M131.5 107C131.5 103.686 134.186 101 137.5 101C140.814 101 143.5 103.686 143.5 107C143.5 110.314 140.814 113 137.5 113C134.186 113 131.5 110.314 131.5 107Z" fill="#9ACBFF"/>
<path d="M136.5 150C136.5 146.686 139.186 144 142.5 144C145.814 144 148.5 146.686 148.5 150C148.5 153.314 145.814 156 142.5 156C139.186 156 136.5 153.314 136.5 150Z" fill="#9ACBFF"/>
<path d="M162.5 137C162.5 133.686 165.186 131 168.5 131C171.814 131 174.5 133.686 174.5 137C174.5 140.314 171.814 143 168.5 143C165.186 143 162.5 140.314 162.5 137Z" fill="#9ACBFF"/>
<path d="M83.5 125C83.5 121.686 86.1863 119 89.5 119C92.8137 119 95.5 121.686 95.5 125C95.5 128.314 92.8137 131 89.5 131C86.1863 131 83.5 128.314 83.5 125Z" fill="#9ACBFF"/>
<path d="M324.12 193C317.64 193 311.94 191.68 307.02 189.04C302.22 186.4 298.44 182.68 295.68 177.88C292.92 172.96 291.54 167.32 291.54 160.96V81.94H259.86V61.6H314.04V160.96C314.04 164.56 315.06 167.44 317.1 169.6C319.26 171.64 322.14 172.66 325.74 172.66H355.62V193H324.12ZM417.11 194.8C408.71 194.8 401.39 193.18 395.15 189.94C388.91 186.7 384.05 182.2 380.57 176.44C377.21 170.56 375.53 163.72 375.53 155.92V131.08C375.53 123.28 377.21 116.5 380.57 110.74C384.05 104.86 388.91 100.3 395.15 97.06C401.39 93.82 408.71 92.2 417.11 92.2C425.39 92.2 432.59 93.82 438.71 97.06C444.95 100.3 449.75 104.86 453.11 110.74C456.59 116.5 458.33 123.28 458.33 131.08V148.9H397.31V155.92C397.31 162.88 398.99 168.16 402.35 171.76C405.71 175.24 410.69 176.98 417.29 176.98C422.33 176.98 426.41 176.14 429.53 174.46C432.65 172.66 434.63 170.08 435.47 166.72H457.61C455.93 175.24 451.37 182.08 443.93 187.24C436.61 192.28 427.67 194.8 417.11 194.8ZM436.55 136.3V130.9C436.55 124.06 434.93 118.84 431.69 115.24C428.45 111.52 423.59 109.66 417.11 109.66C410.63 109.66 405.71 111.52 402.35 115.24C398.99 118.96 397.31 124.24 397.31 131.08V134.86L438.17 134.5L436.55 136.3ZM521.079 194.62C513.519 194.62 506.919 193.42 501.279 191.02C495.639 188.62 491.199 185.32 487.959 181.12C484.839 176.8 483.159 171.76 482.919 166H505.419C505.659 169.12 507.159 171.64 509.919 173.56C512.799 175.48 516.519 176.44 521.079 176.44H528.999C534.519 176.44 538.659 175.36 541.419 173.2C544.179 171.04 545.559 168.1 545.559 164.38C545.559 160.9 544.299 158.2 541.779 156.28C539.379 154.24 535.599 152.92 530.439 152.32L518.199 150.52C506.919 148.96 498.639 145.96 493.359 141.52C488.079 137.08 485.439 130.42 485.439 121.54C485.439 112.3 488.559 105.16 494.799 100.12C501.039 94.96 510.219 92.38 522.339 92.38H529.179C540.219 92.38 549.039 94.84 555.639 99.76C562.239 104.68 565.779 111.28 566.259 119.56H543.759C543.399 116.92 541.899 114.76 539.259 113.08C536.739 111.4 533.379 110.56 529.179 110.56H522.339C517.179 110.56 513.399 111.52 510.999 113.44C508.719 115.24 507.579 117.94 507.579 121.54C507.579 124.9 508.599 127.42 510.639 129.1C512.679 130.66 515.979 131.8 520.539 132.52L533.319 134.32C545.079 136 553.719 139.18 559.239 143.86C564.879 148.42 567.699 155.2 567.699 164.2C567.699 173.8 564.399 181.3 557.799 186.7C551.319 191.98 541.719 194.62 528.999 194.62H521.079ZM643.589 193C634.109 193 626.669 190.36 621.269 185.08C615.989 179.8 613.349 172.54 613.349 163.3V114.34H586.529V94H613.349V66.1H636.029V94H674.009V114.34H636.029V163.3C636.029 169.54 639.089 172.66 645.209 172.66H672.209V193H643.589Z" fill="#343434"/>
</g>
<defs>
<linearGradient id="paint0_linear_4_91" x1="127.606" y1="88.2867" x2="127.606" y2="234.295" gradientUnits="userSpaceOnUse">
<stop stop-color="#59AFFF"/>
<stop offset="1" stop-color="#3888FF"/>
</linearGradient>
<clipPath id="clip0_4_91">
<rect width="675" height="255" fill="white"/>
</clipPath>
</defs>
</svg>
