<svg width="700" height="350" viewBox="0 0 700 350" fill="none" xmlns="http://www.w3.org/2000/svg">
<rect width="700" height="350" fill="white"/>
<path d="M75.016 281.295H200.984C242.498 281.295 253.999 247.003 232.47 217.334L232.466 217.33C232.401 217.24 178.493 143.498 167 141C155.5 138.5 147.5 143.5 139 141C130.5 138.5 117 129.5 105.5 141C94.1031 152.397 46.3994 216.172 45.5452 217.314C45.5185 217.35 45.5191 217.347 45.491 217.382C24.5095 243.052 31.5294 281.295 75.016 281.295Z" fill="url(#paint0_linear_4_92)"/>
<path d="M153 295.5H66C20 295.5 6 244.5 26.5 216.5L92.8453 133.321C93.2692 132.789 93.5 132.13 93.5 131.45V72.1228C93.5 71.1103 92.9892 70.166 92.1417 69.6119L75.9284 59.0109C73.4325 57.379 74.5881 53.5 77.5702 53.5H157" stroke="#343434" stroke-width="12" stroke-linecap="round"/>
<path d="M123.5 295.5H210.5C256.5 295.5 270.5 244.5 250 216.5L183.655 133.321C183.231 132.789 183 132.13 183 131.45V72.1228C183 71.1103 183.511 70.166 184.358 69.6119L200.572 59.0109C203.068 57.379 201.912 53.5 198.93 53.5H119.5" stroke="#343434" stroke-width="12" stroke-linecap="round"/>
<circle cx="147.5" cy="122" r="10" fill="#58AEFF"/>
<circle cx="121" cy="105.5" r="10.5" fill="#60B2FF"/>
<circle cx="153" cy="86.5" r="12.5" fill="#72BAFF"/>
<circle cx="121" cy="151.5" r="7.5" transform="rotate(180 121 151.5)" fill="#9ACBFF"/>
<circle cx="131" cy="176.5" r="7.5" transform="rotate(180 131 176.5)" fill="#9ACBFF"/>
<path d="M84.5 195C84.5 192.791 86.2909 191 88.5 191C90.7091 191 92.5 192.791 92.5 195C92.5 197.209 90.7091 199 88.5 199C86.2909 199 84.5 197.209 84.5 195Z" fill="#9ACBFF"/>
<path d="M193.5 193C193.5 190.791 195.291 189 197.5 189C199.709 189 201.5 190.791 201.5 193C201.5 195.209 199.709 197 197.5 197C195.291 197 193.5 195.209 193.5 193Z" fill="#9ACBFF"/>
<path d="M174.5 208C174.5 205.791 176.291 204 178.5 204C180.709 204 182.5 205.791 182.5 208C182.5 210.209 180.709 212 178.5 212C176.291 212 174.5 210.209 174.5 208Z" fill="#9ACBFF"/>
<circle cx="158.5" cy="173" r="5" transform="rotate(180 158.5 173)" fill="#9ACBFF"/>
<circle cx="158.5" cy="173" r="5" transform="rotate(180 158.5 173)" fill="#9ACBFF"/>
<circle cx="113.5" cy="191" r="5" transform="rotate(180 113.5 191)" fill="#9ACBFF"/>
<path d="M166.5 158.5C166.5 156.015 168.515 154 171 154C173.485 154 175.5 156.015 175.5 158.5C175.5 160.985 173.485 163 171 163C168.515 163 166.5 160.985 166.5 158.5Z" fill="#9ACBFF"/>
<path d="M125.5 208.5C125.5 206.015 127.515 204 130 204C132.485 204 134.5 206.015 134.5 208.5C134.5 210.985 132.485 213 130 213C127.515 213 125.5 210.985 125.5 208.5Z" fill="#9ACBFF"/>
<path d="M142.5 154C142.5 150.686 145.186 148 148.5 148C151.814 148 154.5 150.686 154.5 154C154.5 157.314 151.814 160 148.5 160C145.186 160 142.5 157.314 142.5 154Z" fill="#9ACBFF"/>
<path d="M147.5 197C147.5 193.686 150.186 191 153.5 191C156.814 191 159.5 193.686 159.5 197C159.5 200.314 156.814 203 153.5 203C150.186 203 147.5 200.314 147.5 197Z" fill="#9ACBFF"/>
<path d="M173.5 184C173.5 180.686 176.186 178 179.5 178C182.814 178 185.5 180.686 185.5 184C185.5 187.314 182.814 190 179.5 190C176.186 190 173.5 187.314 173.5 184Z" fill="#9ACBFF"/>
<path d="M94.5 172C94.5 168.686 97.1863 166 100.5 166C103.814 166 106.5 168.686 106.5 172C106.5 175.314 103.814 178 100.5 178C97.1863 178 94.5 175.314 94.5 172Z" fill="#9ACBFF"/>
<path d="M319.76 190C314.72 190 310.287 188.973 306.46 186.92C302.727 184.867 299.787 181.973 297.64 178.24C295.493 174.413 294.42 170.027 294.42 165.08V103.62H269.78V87.8H311.92V165.08C311.92 167.88 312.713 170.12 314.3 171.8C315.98 173.387 318.22 174.18 321.02 174.18H344.26V190H319.76ZM392.085 191.4C385.552 191.4 379.859 190.14 375.005 187.62C370.152 185.1 366.372 181.6 363.665 177.12C361.052 172.547 359.745 167.227 359.745 161.16V141.84C359.745 135.773 361.052 130.5 363.665 126.02C366.372 121.447 370.152 117.9 375.005 115.38C379.859 112.86 385.552 111.6 392.085 111.6C398.525 111.6 404.125 112.86 408.885 115.38C413.739 117.9 417.472 121.447 420.085 126.02C422.792 130.5 424.145 135.773 424.145 141.84V155.7H376.685V161.16C376.685 166.573 377.992 170.68 380.605 173.48C383.219 176.187 387.092 177.54 392.225 177.54C396.145 177.54 399.319 176.887 401.745 175.58C404.172 174.18 405.712 172.173 406.365 169.56H423.585C422.279 176.187 418.732 181.507 412.945 185.52C407.252 189.44 400.299 191.4 392.085 191.4ZM407.205 145.9V141.7C407.205 136.38 405.945 132.32 403.425 129.52C400.905 126.627 397.125 125.18 392.085 125.18C387.045 125.18 383.219 126.627 380.605 129.52C377.992 132.413 376.685 136.52 376.685 141.84V144.78L408.465 144.5L407.205 145.9ZM472.951 191.26C467.071 191.26 461.937 190.327 457.551 188.46C453.164 186.593 449.711 184.027 447.191 180.76C444.764 177.4 443.457 173.48 443.271 169H460.771C460.957 171.427 462.124 173.387 464.271 174.88C466.511 176.373 469.404 177.12 472.951 177.12H479.111C483.404 177.12 486.624 176.28 488.771 174.6C490.917 172.92 491.991 170.633 491.991 167.74C491.991 165.033 491.011 162.933 489.051 161.44C487.184 159.853 484.244 158.827 480.231 158.36L470.711 156.96C461.937 155.747 455.497 153.413 451.391 149.96C447.284 146.507 445.231 141.327 445.231 134.42C445.231 127.233 447.657 121.68 452.511 117.76C457.364 113.747 464.504 111.74 473.931 111.74H479.251C487.837 111.74 494.697 113.653 499.831 117.48C504.964 121.307 507.717 126.44 508.091 132.88H490.591C490.311 130.827 489.144 129.147 487.091 127.84C485.131 126.533 482.517 125.88 479.251 125.88H473.931C469.917 125.88 466.977 126.627 465.111 128.12C463.337 129.52 462.451 131.62 462.451 134.42C462.451 137.033 463.244 138.993 464.831 140.3C466.417 141.513 468.984 142.4 472.531 142.96L482.471 144.36C491.617 145.667 498.337 148.14 502.631 151.78C507.017 155.327 509.211 160.6 509.211 167.6C509.211 175.067 506.644 180.9 501.511 185.1C496.471 189.207 489.004 191.26 479.111 191.26H472.951ZM568.236 190C560.863 190 555.076 187.947 550.876 183.84C546.769 179.733 544.716 174.087 544.716 166.9V128.82H523.856V113H544.716V91.3H562.356V113H591.896V128.82H562.356V166.9C562.356 171.753 564.736 174.18 569.496 174.18H590.496V190H568.236Z" fill="#343434"/>
<path d="M294.464 246.76V223.4H298.368V226.76H299.264L298.368 227.688C298.368 226.259 298.795 225.139 299.648 224.328C300.501 223.496 301.653 223.08 303.104 223.08C304.875 223.08 306.293 223.688 307.36 224.904C308.427 226.12 308.96 227.752 308.96 229.8V234.568C308.96 235.933 308.715 237.128 308.224 238.152C307.755 239.155 307.083 239.933 306.208 240.488C305.333 241.043 304.299 241.32 303.104 241.32C301.653 241.32 300.501 240.915 299.648 240.104C298.795 239.272 298.368 238.141 298.368 236.712L299.264 237.64H298.336L298.464 241.832V246.76H294.464ZM301.696 237.864C302.72 237.864 303.52 237.565 304.096 236.968C304.672 236.371 304.96 235.517 304.96 234.408V229.992C304.96 228.883 304.672 228.029 304.096 227.432C303.52 226.835 302.72 226.536 301.696 226.536C300.693 226.536 299.904 226.845 299.328 227.464C298.752 228.061 298.464 228.904 298.464 229.992V234.408C298.464 235.496 298.752 236.349 299.328 236.968C299.904 237.565 300.693 237.864 301.696 237.864ZM318.836 241.32C317.022 241.32 315.593 240.84 314.548 239.88C313.502 238.92 312.98 237.629 312.98 236.008C312.98 234.28 313.556 232.947 314.708 232.008C315.86 231.069 317.492 230.6 319.604 230.6H323.988V229.096C323.988 228.243 323.71 227.581 323.156 227.112C322.601 226.621 321.844 226.376 320.884 226.376C320.009 226.376 319.284 226.568 318.708 226.952C318.132 227.336 317.79 227.859 317.684 228.52H313.78C313.972 226.856 314.718 225.533 316.02 224.552C317.321 223.571 318.985 223.08 321.012 223.08C323.166 223.08 324.862 223.624 326.1 224.712C327.358 225.779 327.988 227.229 327.988 229.064V241H324.116V237.928H323.476L324.116 237.064C324.116 238.365 323.636 239.4 322.676 240.168C321.716 240.936 320.436 241.32 318.836 241.32ZM320.148 238.312C321.278 238.312 322.196 238.024 322.9 237.448C323.625 236.872 323.988 236.125 323.988 235.208V233.064H319.668C318.857 233.064 318.206 233.299 317.716 233.768C317.225 234.237 316.98 234.856 316.98 235.624C316.98 236.456 317.257 237.117 317.812 237.608C318.388 238.077 319.166 238.312 320.148 238.312ZM332.807 241V237.352H338.951V227.016H333.607V223.4H342.791V237.352H348.231V241H332.807ZM340.551 220.456C339.74 220.456 339.1 220.253 338.631 219.848C338.162 219.421 337.927 218.856 337.927 218.152C337.927 217.448 338.162 216.893 338.631 216.488C339.1 216.061 339.74 215.848 340.551 215.848C341.362 215.848 342.002 216.061 342.471 216.488C342.94 216.893 343.175 217.448 343.175 218.152C343.175 218.856 342.94 219.421 342.471 219.848C342.002 220.253 341.362 220.456 340.551 220.456ZM352.027 241V223.4H355.931V226.76H357.019L355.931 227.688C355.931 226.237 356.347 225.107 357.179 224.296C358.032 223.485 359.195 223.08 360.667 223.08C362.395 223.08 363.771 223.656 364.795 224.808C365.84 225.96 366.363 227.507 366.363 229.448V241H362.363V229.864C362.363 228.797 362.085 227.976 361.531 227.4C360.976 226.824 360.197 226.536 359.195 226.536C358.213 226.536 357.435 226.835 356.859 227.432C356.304 228.029 356.027 228.883 356.027 229.992V241H352.027ZM381.038 241C379.886 241 378.873 240.765 377.998 240.296C377.145 239.827 376.473 239.165 375.982 238.312C375.491 237.437 375.246 236.435 375.246 235.304V221.256H369.614V217.64H379.246V235.304C379.246 235.944 379.427 236.456 379.79 236.84C380.174 237.203 380.686 237.384 381.326 237.384H386.638V241H381.038ZM397.57 241.32C396.076 241.32 394.775 241.032 393.666 240.456C392.556 239.88 391.692 239.08 391.074 238.056C390.476 237.011 390.178 235.795 390.178 234.408V229.992C390.178 228.605 390.476 227.4 391.074 226.376C391.692 225.331 392.556 224.52 393.666 223.944C394.775 223.368 396.076 223.08 397.57 223.08C399.042 223.08 400.322 223.368 401.41 223.944C402.519 224.52 403.372 225.331 403.97 226.376C404.588 227.4 404.898 228.605 404.898 229.992V233.16H394.05V234.408C394.05 235.645 394.348 236.584 394.946 237.224C395.543 237.843 396.428 238.152 397.602 238.152C398.498 238.152 399.223 238.003 399.778 237.704C400.332 237.384 400.684 236.925 400.834 236.328H404.77C404.471 237.843 403.66 239.059 402.338 239.976C401.036 240.872 399.447 241.32 397.57 241.32ZM401.026 230.92V229.96C401.026 228.744 400.738 227.816 400.162 227.176C399.586 226.515 398.722 226.184 397.57 226.184C396.418 226.184 395.543 226.515 394.946 227.176C394.348 227.837 394.05 228.776 394.05 229.992V230.664L401.314 230.6L401.026 230.92ZM416.053 241.288C414.709 241.288 413.536 241.075 412.533 240.648C411.53 240.221 410.741 239.635 410.165 238.888C409.61 238.12 409.312 237.224 409.269 236.2H413.269C413.312 236.755 413.578 237.203 414.069 237.544C414.581 237.885 415.242 238.056 416.053 238.056H417.461C418.442 238.056 419.178 237.864 419.669 237.48C420.16 237.096 420.405 236.573 420.405 235.912C420.405 235.293 420.181 234.813 419.733 234.472C419.306 234.109 418.634 233.875 417.717 233.768L415.541 233.448C413.536 233.171 412.064 232.637 411.125 231.848C410.186 231.059 409.717 229.875 409.717 228.296C409.717 226.653 410.272 225.384 411.381 224.488C412.49 223.571 414.122 223.112 416.277 223.112H417.493C419.456 223.112 421.024 223.549 422.197 224.424C423.37 225.299 424 226.472 424.085 227.944H420.085C420.021 227.475 419.754 227.091 419.285 226.792C418.837 226.493 418.24 226.344 417.493 226.344H416.277C415.36 226.344 414.688 226.515 414.261 226.856C413.856 227.176 413.653 227.656 413.653 228.296C413.653 228.893 413.834 229.341 414.197 229.64C414.56 229.917 415.146 230.12 415.957 230.248L418.229 230.568C420.32 230.867 421.856 231.432 422.837 232.264C423.84 233.075 424.341 234.28 424.341 235.88C424.341 237.587 423.754 238.92 422.581 239.88C421.429 240.819 419.722 241.288 417.461 241.288H416.053ZM435.241 241.288C433.897 241.288 432.723 241.075 431.721 240.648C430.718 240.221 429.929 239.635 429.353 238.888C428.798 238.12 428.499 237.224 428.457 236.2H432.457C432.499 236.755 432.766 237.203 433.257 237.544C433.769 237.885 434.43 238.056 435.241 238.056H436.649C437.63 238.056 438.366 237.864 438.857 237.48C439.347 237.096 439.593 236.573 439.593 235.912C439.593 235.293 439.369 234.813 438.921 234.472C438.494 234.109 437.822 233.875 436.905 233.768L434.729 233.448C432.723 233.171 431.251 232.637 430.312 231.848C429.374 231.059 428.905 229.875 428.905 228.296C428.905 226.653 429.459 225.384 430.569 224.488C431.678 223.571 433.31 223.112 435.465 223.112H436.681C438.643 223.112 440.211 223.549 441.385 224.424C442.558 225.299 443.187 226.472 443.273 227.944H439.273C439.209 227.475 438.942 227.091 438.473 226.792C438.025 226.493 437.427 226.344 436.681 226.344H435.465C434.547 226.344 433.875 226.515 433.449 226.856C433.043 227.176 432.841 227.656 432.841 228.296C432.841 228.893 433.022 229.341 433.385 229.64C433.747 229.917 434.334 230.12 435.145 230.248L437.417 230.568C439.507 230.867 441.043 231.432 442.025 232.264C443.027 233.075 443.529 234.28 443.529 235.88C443.529 237.587 442.942 238.92 441.769 239.88C440.617 240.819 438.91 241.288 436.649 241.288H435.241ZM476.976 241C475.824 241 474.81 240.765 473.936 240.296C473.082 239.827 472.41 239.165 471.92 238.312C471.429 237.437 471.184 236.435 471.184 235.304V221.256H465.552V217.64H475.184V235.304C475.184 235.944 475.365 236.456 475.728 236.84C476.112 237.203 476.624 237.384 477.264 237.384H482.576V241H476.976ZM493.475 241.32C491.235 241.32 489.475 240.701 488.195 239.464C486.915 238.205 486.275 236.499 486.275 234.344V223.4H490.275V234.312C490.275 235.443 490.552 236.317 491.107 236.936C491.662 237.533 492.451 237.832 493.475 237.832C494.478 237.832 495.256 237.533 495.811 236.936C496.387 236.317 496.675 235.443 496.675 234.312V223.4H500.675V234.344C500.675 236.499 500.024 238.205 498.723 239.464C497.422 240.701 495.672 241.32 493.475 241.32ZM510.711 241.32C508.897 241.32 507.468 240.84 506.423 239.88C505.377 238.92 504.855 237.629 504.855 236.008C504.855 234.28 505.431 232.947 506.583 232.008C507.735 231.069 509.367 230.6 511.479 230.6H515.863V229.096C515.863 228.243 515.585 227.581 515.031 227.112C514.476 226.621 513.719 226.376 512.759 226.376C511.884 226.376 511.159 226.568 510.583 226.952C510.007 227.336 509.665 227.859 509.559 228.52H505.655C505.847 226.856 506.593 225.533 507.895 224.552C509.196 223.571 510.86 223.08 512.887 223.08C515.041 223.08 516.737 223.624 517.975 224.712C519.233 225.779 519.863 227.229 519.863 229.064V241H515.991V237.928H515.351L515.991 237.064C515.991 238.365 515.511 239.4 514.551 240.168C513.591 240.936 512.311 241.32 510.711 241.32ZM512.023 238.312C513.153 238.312 514.071 238.024 514.775 237.448C515.5 236.872 515.863 236.125 515.863 235.208V233.064H511.543C510.732 233.064 510.081 233.299 509.591 233.768C509.1 234.237 508.855 234.856 508.855 235.624C508.855 236.456 509.132 237.117 509.687 237.608C510.263 238.077 511.041 238.312 512.023 238.312ZM552.958 241C551.272 241 549.95 240.531 548.99 239.592C548.051 238.653 547.582 237.363 547.582 235.72V227.016H542.814V223.4H547.582V218.44H551.614V223.4H558.366V227.016H551.614V235.72C551.614 236.829 552.158 237.384 553.246 237.384H558.046V241H552.958ZM570.257 241.32C568.764 241.32 567.462 241.032 566.353 240.456C565.244 239.88 564.38 239.08 563.761 238.056C563.164 237.011 562.865 235.795 562.865 234.408V229.992C562.865 228.605 563.164 227.4 563.761 226.376C564.38 225.331 565.244 224.52 566.353 223.944C567.462 223.368 568.764 223.08 570.257 223.08C571.729 223.08 573.009 223.368 574.097 223.944C575.206 224.52 576.06 225.331 576.657 226.376C577.276 227.4 577.585 228.605 577.585 229.992V233.16H566.737V234.408C566.737 235.645 567.036 236.584 567.633 237.224C568.23 237.843 569.116 238.152 570.289 238.152C571.185 238.152 571.91 238.003 572.465 237.704C573.02 237.384 573.372 236.925 573.521 236.328H577.457C577.158 237.843 576.348 239.059 575.025 239.976C573.724 240.872 572.134 241.32 570.257 241.32ZM573.713 230.92V229.96C573.713 228.744 573.425 227.816 572.849 227.176C572.273 226.515 571.409 226.184 570.257 226.184C569.105 226.184 568.23 226.515 567.633 227.176C567.036 227.837 566.737 228.776 566.737 229.992V230.664L574.001 230.6L573.713 230.92ZM588.741 241.288C587.397 241.288 586.223 241.075 585.221 240.648C584.218 240.221 583.429 239.635 582.853 238.888C582.298 238.12 581.999 237.224 581.957 236.2H585.957C585.999 236.755 586.266 237.203 586.757 237.544C587.269 237.885 587.93 238.056 588.741 238.056H590.149C591.13 238.056 591.866 237.864 592.357 237.48C592.847 237.096 593.093 236.573 593.093 235.912C593.093 235.293 592.869 234.813 592.421 234.472C591.994 234.109 591.322 233.875 590.405 233.768L588.229 233.448C586.223 233.171 584.751 232.637 583.812 231.848C582.874 231.059 582.405 229.875 582.405 228.296C582.405 226.653 582.959 225.384 584.069 224.488C585.178 223.571 586.81 223.112 588.965 223.112H590.181C592.143 223.112 593.711 223.549 594.885 224.424C596.058 225.299 596.687 226.472 596.773 227.944H592.773C592.709 227.475 592.442 227.091 591.973 226.792C591.525 226.493 590.927 226.344 590.181 226.344H588.965C588.047 226.344 587.375 226.515 586.949 226.856C586.543 227.176 586.341 227.656 586.341 228.296C586.341 228.893 586.522 229.341 586.885 229.64C587.247 229.917 587.834 230.12 588.645 230.248L590.917 230.568C593.007 230.867 594.543 231.432 595.525 232.264C596.527 233.075 597.029 234.28 597.029 235.88C597.029 237.587 596.442 238.92 595.269 239.88C594.117 240.819 592.41 241.288 590.149 241.288H588.741ZM610.52 241C608.835 241 607.512 240.531 606.552 239.592C605.613 238.653 605.144 237.363 605.144 235.72V227.016H600.376V223.4H605.144V218.44H609.176V223.4H615.928V227.016H609.176V235.72C609.176 236.829 609.72 237.384 610.808 237.384H615.608V241H610.52ZM620.62 241V237.352H626.764V227.016H621.42V223.4H630.604V237.352H636.044V241H620.62ZM628.364 220.456C627.553 220.456 626.913 220.253 626.444 219.848C625.974 219.421 625.74 218.856 625.74 218.152C625.74 217.448 625.974 216.893 626.444 216.488C626.913 216.061 627.553 215.848 628.364 215.848C629.174 215.848 629.814 216.061 630.284 216.488C630.753 216.893 630.988 217.448 630.988 218.152C630.988 218.856 630.753 219.421 630.284 219.848C629.814 220.253 629.174 220.456 628.364 220.456ZM639.839 241V223.4H643.743V226.76H644.831L643.743 227.688C643.743 226.237 644.159 225.107 644.991 224.296C645.844 223.485 647.007 223.08 648.479 223.08C650.207 223.08 651.583 223.656 652.607 224.808C653.652 225.96 654.175 227.507 654.175 229.448V241H650.175V229.864C650.175 228.797 649.898 227.976 649.343 227.4C648.788 226.824 648.01 226.536 647.007 226.536C646.026 226.536 645.247 226.835 644.671 227.432C644.116 228.029 643.839 228.883 643.839 229.992V241H639.839ZM661.427 246.76V243.432H666.643C667.539 243.432 668.211 243.208 668.659 242.76C669.107 242.333 669.331 241.715 669.331 240.904V239.592L669.395 236.296H668.531L669.395 235.432C669.395 236.861 668.968 237.981 668.115 238.792C667.283 239.581 666.152 239.976 664.723 239.976C662.931 239.976 661.501 239.368 660.435 238.152C659.389 236.936 658.867 235.293 658.867 233.224V229.8C658.867 227.752 659.389 226.12 660.435 224.904C661.501 223.688 662.931 223.08 664.723 223.08C666.152 223.08 667.283 223.485 668.115 224.296C668.968 225.085 669.395 226.195 669.395 227.624L668.531 226.76H669.395L669.299 223.4H673.299V241C673.299 242.771 672.712 244.168 671.539 245.192C670.365 246.237 668.755 246.76 666.707 246.76H661.427ZM666.067 236.52C667.091 236.52 667.88 236.221 668.435 235.624C669.011 235.005 669.299 234.152 669.299 233.064V229.992C669.299 228.904 669.011 228.061 668.435 227.464C667.88 226.845 667.091 226.536 666.067 226.536C665.043 226.536 664.253 226.835 663.699 227.432C663.144 228.029 662.867 228.883 662.867 229.992V233.064C662.867 234.173 663.144 235.027 663.699 235.624C664.253 236.221 665.043 236.52 666.067 236.52ZM685.35 241.32C684.433 241.32 683.697 241.053 683.142 240.52C682.609 239.987 682.342 239.261 682.342 238.344C682.342 237.427 682.609 236.701 683.142 236.168C683.697 235.613 684.433 235.336 685.35 235.336C686.267 235.336 686.993 235.613 687.526 236.168C688.081 236.701 688.358 237.427 688.358 238.344C688.358 239.261 688.081 239.987 687.526 240.52C686.993 241.053 686.267 241.32 685.35 241.32Z" fill="#343434"/>
<defs>
<linearGradient id="paint0_linear_4_92" x1="138.606" y1="135.287" x2="138.606" y2="281.295" gradientUnits="userSpaceOnUse">
<stop stop-color="#59AFFF"/>
<stop offset="1" stop-color="#3888FF"/>
</linearGradient>
</defs>
</svg>
